<svg width="71" height="71" viewBox="0 0 71 71" fill="none" xmlns="http://www.w3.org/2000/svg">
<path d="M35.0442 0.00549316C15.6947 0.00549316 0.00549316 16.1014 0.00549316 35.9358C0.00549316 51.8127 10.0478 65.265 23.9694 70.0203C24.1647 70.0627 24.364 70.0837 24.5638 70.0828C25.8622 70.0828 26.3627 69.1286 26.3627 68.2996C26.3627 67.4393 26.3314 65.1868 26.3158 62.1835C25.1567 62.4552 23.971 62.5969 22.7806 62.6058C16.0388 62.6058 14.5059 57.3657 14.5059 57.3657C12.9104 53.2205 10.6109 52.1099 10.6109 52.1099C7.56071 49.9669 10.5953 49.9043 10.8299 49.9043H10.8456C14.3651 50.2172 16.2109 53.6272 16.2109 53.6272C17.9628 56.693 20.3091 57.5534 22.4052 57.5534C23.7912 57.5257 25.1557 57.2058 26.4096 56.6148C26.7225 54.2998 27.6297 52.7199 28.6308 51.8127C20.8566 50.9054 12.6757 47.8239 12.6757 34.0587C12.6757 30.1325 14.0366 26.9258 16.2734 24.4231C15.9137 23.5158 14.7092 19.8555 16.6176 14.9126C16.8736 14.8513 17.1366 14.825 17.3997 14.8344C18.6667 14.8344 21.5292 15.3193 26.2532 18.6041C31.9932 16.9982 38.0638 16.9982 43.8038 18.6041C48.5278 15.3193 51.3903 14.8344 52.6573 14.8344C52.9204 14.825 53.1835 14.8513 53.4395 14.9126C55.3478 19.8555 54.1434 23.5158 53.7836 24.4231C56.0204 26.9415 57.3813 30.1481 57.3813 34.0587C57.3813 47.8552 49.1848 50.8898 41.3793 51.7814C42.6307 52.892 43.7569 55.0819 43.7569 58.4293C43.7569 63.2315 43.71 67.1108 43.71 68.284C43.71 69.1286 44.1949 70.0828 45.4932 70.0828C45.7034 70.0837 45.9131 70.0628 46.1189 70.0203C60.0561 65.265 70.0828 51.797 70.0828 35.9358C70.0828 16.1014 54.3936 0.00549316 35.0442 0.00549316Z" fill="black"/>
</svg>
